<?xml version="1.0" encoding="UTF-8" standalone="no"?>
<!-- Created with Inkscape (http://www.inkscape.org/) -->

<svg
   xmlns:dc="http://purl.org/dc/elements/1.1/"
   xmlns:cc="http://creativecommons.org/ns#"
   xmlns:rdf="http://www.w3.org/1999/02/22-rdf-syntax-ns#"
   xmlns:svg="http://www.w3.org/2000/svg"
   xmlns="http://www.w3.org/2000/svg"
   version="1.1"
   width="118"
   height="35"
   id="svg3153">
  <defs
     id="defs3155" />
  <metadata
     id="metadata3158">
    <rdf:RDF>
      <cc:Work
         rdf:about="">
        <dc:format>image/svg+xml</dc:format>
        <dc:type
           rdf:resource="http://purl.org/dc/dcmitype/StillImage" />
        <dc:title></dc:title>
      </cc:Work>
    </rdf:RDF>
  </metadata>
  <g
     transform="translate(0,-1017.3622)"
     id="layer1">
    <g
       transform="matrix(0.23810165,0,0,0.23810165,-11.680593,938.61352)"
       id="g3097">
      <g
         id="g3099">
        <g
           id="g3101">
          <polygon
             points="254.615,413.054 251.613,422 265.347,422.101 267.912,402.224 168.687,401.39 161.636,417.482 "
             id="polygon3103"
             style="fill:#85be46;fill-rule:evenodd" />
          <path
             d="m 221.887,432.26 0.138,15.02 c 0.132,7.939 4.157,11.816 12.127,11.666 l 11.615,-0.211 c 4.159,-0.092 7.466,-1.014 9.982,-2.791 2.504,-1.805 4.143,-4.418 4.928,-7.883 0.774,-3.461 2.559,-8.592 3.428,-14.404 -0.307,-0.08 -13.923,-0.965 -13.923,-0.965 -0.447,8.725 -1.032,10.793 -1.736,12.339 -0.71,1.577 -2.192,2.36 -4.493,2.398 l -3.516,0.082 c -2.961,0.08 -4.435,-1.276 -4.463,-4.057 l 0.395,-21.253 c 0,0 -46.581,0.981 -47.296,1.002 8.901,37.568 -21.711,36.525 -21.711,36.525 l 5.62,14.325 c 0,0 39.229,-4.356 31.979,-41.19 l 16.926,-0.603 z"
             id="path3105"
             style="fill:#85be46;fill-rule:evenodd" />
          <polygon
             points="209.065,376.081 209.266,383.78 175.885,383.839 175.859,395.295 209.564,395.226 230.433,395.276 258.023,395.346 258.044,383.889 230.146,383.82 229.94,375.166 265.063,373.641 265.098,362.197 229.645,363.73 229.011,341.133 208.14,344.305 208.75,364.634 168.738,366.392 168.723,377.846 "
             id="polygon3107"
             style="fill:#85be46;fill-rule:evenodd" />
        </g>
        <path
           d="m 115.869,418.816 26.846,-0.914 4.987,-14.234 -36.35,0.392 v -6.024 h 17.384 l -0.014,0.117 h 13.282 l 4.927,-63.999 -87.794,4.056 1.3,10.621 72.229,-4.336 -1.339,18.069 -19.975,1.648 v -12.75 l -13.403,0.985 0.06,12.88 -22.066,1.838 -1.557,-19.165 -13.949,0.831 5.871,49.205 H 79.61 98.009 v 6.165 l -41.844,0.449 v 16.194 l 37.156,-1.267 c -12.979,17.771 -37.964,21.357 -37.964,21.357 l 5.172,20.108 c 0,0 23.946,-9.015 37.479,-25.934 v 36.646 l 13.343,2.561 v -42.869 c 14.272,16.424 41.752,21.995 41.752,21.995 l 5.282,-19.036 c 0.001,0.001 -28.771,-2.475 -42.516,-15.589 z m 14.316,-40.419 -0.692,9.297 h -18.141 v -9.297 h 18.833 z m -51.812,9.297 -1.094,-9.297 h 20.73 v 9.297 H 78.373 z"
           id="path3109"
           style="fill:#2ea1cf;fill-rule:evenodd" />
      </g>
      <g
         id="g3111">
        <path
           d="m 313.559,375.799 c 0,0 -8.507,1.907 -8.537,2.029 v 7.59 h 6.389 v 4.866 h -6.389 v 1.165 l 6.204,4.288 c -0.503,1.596 -2.069,6.818 -2.069,6.818 -0.261,-0.281 -4.135,-5.394 -4.135,-5.453 v 19.266 h -4.696 v -17.711 c -0.077,0.164 -6.979,9.89 -7.261,10.324 l -3.244,-5.844 9.706,-12.853 h -8.722 v -4.866 h 9.521 v -6.739 c -0.153,0 -8.013,1.476 -8.013,1.476 0,0 -2.535,-4.569 -2.633,-4.668 0,0 20.461,-4.427 20.549,-4.427 l 3.33,4.739 z m 17.222,40.569 h -4.887 v -12.07 l -14.287,2.733 -0.943,-4.677 15.23,-3.113 v -27.459 h 4.887 v 26.486 l 3.945,-0.785 0.563,4.871 -4.508,0.973 v 13.041 z m -12.599,-18.885 c -0.1,-0.129 -6.201,-7.399 -6.201,-7.399 l 3.577,-3.124 6.569,7.422 -3.945,3.101 z m 3.389,-11.877 -6.391,-7.186 3.576,-3.314 c 0.239,0.229 6.384,7.007 6.384,7.007 l -3.569,3.493 z"
           id="path3113"
           style="fill:#2ea1cf" />
        <path
           d="m 352.528,373.541 v 7.396 h 4.878 v 4.668 h -4.878 v 8.182 c 1.876,-0.651 3.566,-1.173 5.069,-1.547 0,0 0.061,3.416 0.061,4.982 0,0 -1.939,0.651 -3.445,1.044 -0.75,0.268 -1.312,0.453 -1.685,0.581 v 11.296 c -0.155,5.261 -1.597,6.404 -8.837,6.031 0,0 -0.431,-1.094 -0.754,-2.288 -0.22,-0.884 -0.395,-1.344 -0.641,-2.167 0.051,0.139 5.192,0.381 5.336,-1.77 v -9.737 c -1.381,0.391 -5.215,1.444 -5.215,1.444 l -0.99,-5.148 c 0,0 5.826,-1.429 6.205,-1.545 v -9.359 h -5.829 v -4.668 h 5.829 v -9.156 h 4.863 l 0.033,1.761 z m 5.821,8.953 v -4.666 h 10.718 v -6.236 h 4.916 l -0.029,1.756 v 4.48 h 12.029 v 4.666 h -12.029 v 6.818 h 8.27 l 2.814,2.732 c -2.12,6.491 -5.256,11.673 -9.4,15.569 3.52,2.067 7.34,3.445 11.475,4.096 0,0 -2.922,4.63 -2.82,4.659 -4.889,-1.296 -9.219,-3.051 -12.973,-5.251 -4.5,2.34 -9.276,4.026 -14.291,5.059 l -2.814,-4.467 c 4.89,-0.785 9.148,-2.158 12.79,-4.096 -2.759,-2.72 -5.332,-6.035 -7.709,-9.928 l 3.946,-2.72 c 2.381,3.755 5.078,6.995 8.078,9.727 3.388,-2.983 5.95,-6.495 7.713,-10.511 h -20.118 v -4.869 h 10.153 v -6.818 h -10.719 z"
           id="path3115"
           style="fill:#2ea1cf" />
        <path
           d="m 414.495,372.686 c 0,0 -1.315,3.906 -1.69,4.941 h 23.497 v 4.487 h -25.756 c -0.747,1.557 -1.63,3.04 -2.63,4.478 h 24.249 v 24.333 c 0.136,4.057 -2.565,5.764 -10.718,5.645 l -1.689,-4.859 c 5.514,0.111 7.155,0.012 7.332,-1.175 v -3.312 h -21.615 v 8.953 h -5.08 v -21.21 c -1.509,1.294 -3.2,2.648 -5.074,4.074 l -3.387,-4.074 c 5.52,-3.897 9.838,-8.193 12.977,-12.852 h -11.658 v -4.487 h 14.291 c 0.119,-0.381 0.373,-0.976 0.754,-1.748 0.738,-1.818 1.244,-3.242 1.502,-4.287 l 4.695,1.093 z m -9.02,18.382 v 3.897 h 21.615 v -3.897 h -21.615 z m 0,7.971 v 4.098 h 21.615 v -4.098 h -21.615 z"
           id="path3117"
           style="fill:#2ea1cf" />
        <path
           d="m 443.182,386.189 v -3.875 h 10.361 c -0.27,-0.522 -0.704,-1.304 -1.332,-2.349 -0.119,-0.251 -0.246,-0.452 -0.365,-0.582 l 2.441,-0.785 h -8.27 v -3.893 h 16.912 v -3.114 h 5.039 l 0.033,3.114 h 16.549 v 3.893 h -9.215 l 2.852,0.714 c 0,0 -0.905,2.601 -1.151,3.001 h 10.528 v 3.875 h -44.382 z m 10.292,20.268 c 0,0 -4.199,5.825 -5.956,8.164 l -4.336,-2.721 c 0,0 4.678,-7.268 4.898,-7.799 l 5.394,2.356 z m 28.64,-18.319 v 15.189 h -15.421 c 0.57,0.762 3.006,4.477 3.006,4.477 l -3.949,2.341 c -0.28,-0.243 -3.57,-5.846 -3.57,-5.846 l 1.694,-0.971 h -15.222 v -15.189 h 33.462 z m -28.571,3.906 v 1.935 h 23.683 v -1.935 h -23.683 z m 23.683,5.439 h -23.683 v 1.958 h 23.683 v -1.958 z m -18.615,7.24 -0.005,5.229 c 0,0.775 0.379,1.166 1.131,1.166 h 12.96 c 1.128,0.049 1.301,-3.604 1.326,-4.869 0,0.092 4.697,2.529 4.697,2.529 -0.252,4.54 -1.879,6.748 -4.89,6.615 h -16.349 c -2.504,0.133 -3.7,-1.032 -3.567,-3.492 v -7.208 l 4.697,0.03 z m -2.066,-26.124 c 0.748,1.176 1.496,2.411 2.248,3.715 h 13.346 c 0.629,-1.183 1.132,-2.411 1.503,-3.715 h -17.097 z m 25.935,25.318 c 5.254,7.792 5.254,7.792 5.254,7.792 l -4.124,2.32 c 0,0 -4.729,-7.119 -5.079,-7.582 l 3.949,-2.53 z"
           id="path3119"
           style="fill:#2ea1cf" />
        <path
           d="m 503.235,401.318 c -0.298,0.623 -4.513,10.423 -5.032,11.354 l -4.132,-1.164 c 0.438,-0.781 4.397,-11.023 4.513,-11.493 l 4.651,1.303 z m -4.651,-4.216 v -23.561 h 34.776 v 23.561 h -34.776 z m 4.324,-19.274 v 5.448 h 11.084 v -5.448 h -11.084 z m 0,9.535 v 5.46 h 11.084 v -5.46 h -11.084 z m 6.391,21.805 c 0.07,1.045 0.442,1.296 1.689,1.177 h 12.789 c 1.984,-0.2 2.189,-1.567 2.441,-5.451 l 4.328,1.944 c -0.758,5.706 -2.287,7.723 -5.453,7.973 h -15.984 c -2.879,0 -4.317,-1.234 -4.317,-3.693 v -11.102 l 4.499,0.038 0.008,1.718 v 7.396 z m 8.467,-11.876 c 0.263,0.623 3.645,7.459 3.753,7.4 l -3.753,1.949 c -0.292,-0.221 -3.428,-7.309 -3.578,-7.602 l 3.578,-1.747 z m 0.191,-19.464 v 5.448 h 11.088 v -5.448 h -11.088 z m 0,9.535 v 5.46 h 11.088 v -5.46 h -11.088 z m 10.721,14.085 3.656,-2.157 c 0.157,0.311 5.934,10.17 6.01,10.26 l -3.854,2.158 -5.812,-10.261 z"
           id="path3121"
           style="fill:#2ea1cf" />
      </g>
      <g
         id="g3123">
        <path
           d="m 319.484,454.225 c -2.269,0.794 -6.697,1.857 -11.389,1.857 -6.029,0 -10.611,-1.404 -13.987,-4.398 -3.162,-2.789 -4.961,-7.145 -4.961,-12.135 0.051,-10.452 8.021,-17.109 19.793,-17.109 4.383,0 9.649,1.227 10.543,2.061 v 5.803 c -1.942,-1.043 -4.477,-2.983 -10.597,-2.883 -10.129,0.201 -12.928,4.659 -12.928,11.848 0,7.479 4.963,11.927 12.337,11.927 2.381,0 4.072,-0.292 4.912,-0.633 v -8.272 h -6.271 v -4.748 h 12.547 v 16.682 z"
           id="path3125"
           style="fill:#85be46" />
        <path
           d="m 349.066,455.751 h -5.897 l -0.03,-2.037 c -1.594,2.159 -3.668,2.568 -8.311,2.568 -4.639,0 -8.912,-2.598 -8.912,-10.36 V 431.93 h 6.491 v 12.949 c 0,3.978 1.492,6.254 4.933,6.254 5.037,0 5.15,-2.127 5.194,-6.363 v -12.84 h 6.489 c 0,0 0.043,23.129 0.043,23.821 z"
           id="path3127"
           style="fill:#85be46" />
        <path
           d="m 392.277,440.382 0,0 c 0.639,-0.913 8.385,-8.452 8.385,-8.452 h 7.812 l -9.552,9.736 10.859,14.085 h -7.955 l -6.844,-9.758 -2.705,3.061 v 6.697 h -6.482 v -34.726 h 6.482 v 19.357 z"
           id="path3129"
           style="fill:#85be46" />
        <path
           d="m 413.104,431.93 6.467,0.049 v 3.785 c 3.029,-4.094 9.646,-3.704 8.621,-3.906 v 4.287 c -0.568,-0.1 -7.635,2.68 -8.219,5.422 -0.115,0.53 -0.167,1.162 -0.167,1.797 v 12.388 l -6.702,-0.188 V 431.93 z"
           id="path3131"
           style="fill:#85be46" />
        <path
           d="m 428.191,452.418 c 0,-2.249 1.689,-3.864 4.018,-3.864 2.379,0 4.014,1.556 4.014,3.864 0,2.188 -1.595,3.864 -4.064,3.864 -2.317,0 -3.968,-1.677 -3.968,-3.864 z"
           id="path3133"
           style="fill:#85be46" />
        <path
           d="m 459.742,455.019 c -1.369,0.571 -3.479,1.214 -6.699,1.214 -8.015,0 -13.232,-4.799 -13.232,-12.187 0,-7.138 5.268,-12.661 14.287,-12.661 2.377,0 3.949,0.223 5.422,0.805 l -0.051,4.906 c -1.06,-0.477 -2.832,-1.01 -5.152,-1.01 -4.964,0 -7.921,3.383 -7.868,7.729 0,4.89 3.431,7.669 7.868,7.669 2.209,0 4.121,-0.563 5.381,-1.053 l 0.044,4.588 z"
           id="path3135"
           style="fill:#85be46" />
        <path
           d="m 489.072,443.615 c 0,8.762 -6.648,12.667 -13.191,12.667 -7.219,0 -12.867,-4.599 -12.867,-12.286 0,-7.821 5.54,-12.611 13.288,-12.611 7.655,0 12.77,4.99 12.77,12.23 z m -19.359,0.241 c 0,4.597 2.422,7.827 6.329,7.827 3.704,0 6.325,-3.08 6.325,-7.928 0,-3.705 -1.691,-7.783 -6.123,-7.783 -4.59,0.001 -6.531,3.915 -6.531,7.884 z"
           id="path3137"
           style="fill:#85be46" />
        <path
           d="m 494.189,431.93 6.364,-0.081 v 2.327 0.252 c 1.208,-1.856 3.151,-2.779 7.542,-2.779 3.371,0 6.047,1.496 7.148,4.145 l 0,0 c 0.885,-1.324 2.051,-2.297 3.213,-2.98 1.479,-0.934 3.111,-1.428 5.268,-1.428 4.232,0 8.564,2.69 8.564,10.32 v 14.046 h -6.34 V 442.59 c 0,-3.977 -1.473,-6.307 -4.591,-6.307 -2.221,0 -3.857,1.467 -4.53,3.186 -0.217,0.532 -0.318,1.316 -0.318,1.998 v 14.284 h -6.338 v -13.805 c 0,-3.333 -1.41,-5.663 -4.423,-5.663 -2.422,0 -4.073,1.761 -4.696,3.365 -0.216,0.633 -0.328,1.326 -0.328,2.018 v 14.085 h -6.535 V 431.93 z"
           id="path3139"
           style="fill:#85be46" />
      </g>
      <g
         id="g3141">
        <path
           d="M 340.03,449.096"
           id="path3143"
           style="fill:#85be46" />
      </g>
      <path
         d="m 380.784,443.615 c 0,8.762 -6.639,12.667 -13.187,12.667 -7.229,0 -12.871,-4.599 -12.871,-12.286 0,-7.821 5.533,-12.611 13.282,-12.611 7.661,0 12.776,4.99 12.776,12.23 z m -19.358,0.241 c 0,4.597 2.428,7.827 6.331,7.827 3.685,0 6.325,-3.08 6.325,-7.928 0,-3.705 -1.691,-7.783 -6.125,-7.783 -4.596,0.001 -6.531,3.915 -6.531,7.884 z"
         id="path3145"
         style="fill:#85be46" />
    </g>
  </g>
</svg>
